<svg width="32" height="35" viewBox="0 0 32 35" fill="none" xmlns="http://www.w3.org/2000/svg">
<path fill-rule="evenodd" clip-rule="evenodd" d="M17.0158 1.36551L29.7879 8.59472C30.4174 8.95099 30.8057 9.6133 30.8057 10.3305V24.7588C30.8057 25.4761 30.4174 26.1384 29.7879 26.4946L17.0158 33.7239C16.3935 34.0761 15.629 34.0761 15.0067 33.7239L2.23457 26.4946C1.60514 26.1384 1.2168 25.4761 1.2168 24.7588V10.3305C1.2168 9.6133 1.60514 8.95099 2.23457 8.59472L15.0067 1.36551C15.629 1.01325 16.3935 1.01325 17.0158 1.36551Z" stroke="black" stroke-width="1.8"/>
<path d="M25.3333 11.3273L17.993 7.23389C17.3973 6.90162 16.6525 7.31694 16.6525 7.98149V14.4816C16.6525 14.4816 16.6455 14.5573 16.7202 14.631C16.7788 14.6889 16.8669 14.6888 16.8669 14.6888H19.6935C19.6935 14.6888 19.7847 14.6897 19.8486 14.6211C19.9108 14.5544 19.9079 14.4817 19.9079 14.4817V12.2752C19.9079 12.0613 20.1386 11.9204 20.3386 12.012L25.9375 14.577C26.0576 14.6321 26.1961 14.5475 26.1961 14.4191V12.7708C26.1961 12.1753 25.8673 11.625 25.3333 11.3273Z" fill="black"/>
<path d="M25.6194 16.2032H19.9084H19.2875H13.0181H9.35203C9.08172 16.2032 8.86251 15.9914 8.86251 15.7303V13.7396C8.86251 13.4695 9.02355 13.2235 9.27629 13.1078L11.6883 12.0028C11.8789 11.9154 12.0988 12.0497 12.0988 12.2536V14.4817C12.0988 14.596 12.1948 14.6887 12.3132 14.6887H15.1398C15.2582 14.6887 15.3542 14.596 15.3542 14.4817V7.98145C15.3542 7.3169 14.6095 6.90158 14.0137 7.23394L6.67342 11.3273C6.13946 11.6251 5.81055 12.1753 5.81055 12.7708V18.3141C5.81055 18.5726 6.02755 18.7822 6.29512 18.7822H11.6092C11.6332 18.7822 11.6564 18.7844 11.6795 18.7876H13.0181H19.2875H20.2291C20.2475 18.7849 20.2659 18.7821 20.285 18.7821H22.768C22.9761 18.7821 23.1447 18.945 23.1447 19.1459V21.2484C23.1447 21.5169 22.9846 21.7614 22.7335 21.8765L20.3391 22.9733C20.1391 23.065 19.9084 22.924 19.9084 22.7102V20.497C19.9084 20.497 19.914 20.4213 19.85 20.3531C19.7885 20.2875 19.6917 20.2888 19.6917 20.2888H16.8674C16.8674 20.2888 16.7651 20.2848 16.7033 20.3492C16.649 20.4059 16.653 20.497 16.653 20.497V27.0038C16.653 27.6684 17.3978 28.0837 17.9935 27.7514L25.3338 23.658C25.8677 23.3603 26.1966 22.81 26.1966 22.2145V16.7607C26.1966 16.4528 25.9382 16.2032 25.6194 16.2032Z" fill="black"/>
<path d="M15.1398 20.2899H12.3117C12.3117 20.2899 12.2383 20.2797 12.1599 20.3455C12.0892 20.4046 12.0988 20.4971 12.0988 20.4971V22.7318C12.0988 22.9356 11.8789 23.07 11.6883 22.9826L9.2762 21.8776C9.02355 21.7619 8.86251 21.5159 8.86251 21.2457V20.4971C8.86251 20.3826 8.76646 20.2899 8.64807 20.2899H6.02499C5.90659 20.2899 5.81055 20.3826 5.81055 20.4971V22.2146V22.4419H5.82684C5.89883 22.9476 6.20821 23.3987 6.67342 23.6581L14.0137 27.7515C14.6095 28.0837 15.3542 27.6685 15.3542 27.0039V20.4971C15.3542 20.4971 15.3625 20.3931 15.2985 20.3364C15.2352 20.2804 15.1398 20.2899 15.1398 20.2899Z" fill="black"/>
</svg>
